<svg width="24" height="24" viewBox="0 0 24 24" fill="none" xmlns="http://www.w3.org/2000/svg">
<path d="M23.1232 10.3336L23.1056 10.3116C22.9117 10.0709 22.5271 9.83029 22.0421 9.71657C21.565 9.60469 21.0475 9.62947 20.6007 9.84525L20.6005 9.84532C19.4913 10.3806 18.7076 10.9176 18.4086 11.1771L18.4083 11.1774L18.4065 11.1789M23.1232 10.3336L12.575 2.43946C12.575 1.07219 13.7569 0 15.0533 0C16.4362 0 17.5306 1.00615 17.5306 2.4386V10.5873C17.5306 11.2984 18.0783 10.8017 18.0783 10.8017L18.4065 11.1789M23.1232 10.3336C23.7668 11.1565 23.5299 12.3611 22.8413 12.8271L22.84 12.828C22.757 12.8845 22.6691 12.9432 22.5748 13.0061C22.5387 13.0302 22.5017 13.0549 22.4637 13.0804L22.4601 13.0827C21.5024 13.72 20.0903 14.6596 18.9107 15.9146C18.5142 16.3363 18.1179 16.9737 17.7041 17.6393L17.685 17.6699C17.0222 18.736 16.2552 19.9632 15.2102 20.9779C13.6503 22.4926 11.3908 23.5 9.03085 23.5C6.73306 23.5 4.61192 22.8241 3.07533 21.5646C1.54956 20.3139 0.571915 18.4666 0.57193 16.0426L0.5719 16.0387L0.0719149 16.0426M23.1232 10.3336L0.0719149 16.0426M18.4065 11.1789L18.3989 11.1855C18.3916 11.1919 18.382 11.2 18.3704 11.2094C18.3475 11.2281 18.3155 11.2529 18.2768 11.2797C18.2082 11.327 18.0824 11.4059 17.9292 11.4453C17.7698 11.4864 17.4823 11.5031 17.2557 11.2672C17.0661 11.0699 17.0306 10.8005 17.0306 10.5873V2.4386C17.0306 1.2992 16.1773 0.5 15.0533 0.5C14.0134 0.5 13.075 1.36767 13.075 2.43946V5.60458L12.1296 5.83182C11.9918 5.56169 11.8151 5.39126 11.6095 5.28287C11.3976 5.17123 11.1257 5.11044 10.7817 5.11044C10.1132 5.11044 9.6935 5.2971 9.42105 5.55603C9.1412 5.822 8.95844 6.21973 8.87566 6.7444L8.73129 7.65948L8.04557 7.03657C7.84479 6.85419 7.60263 6.71141 7.33405 6.61958C7.06544 6.52774 6.77794 6.48947 6.49088 6.50795C6.20382 6.52643 5.92551 6.60112 5.67435 6.72587C5.42325 6.85058 5.2061 7.0219 5.03564 7.2266L4.15142 8.28843V6.90665V5.72294V5.72262C4.15179 5.14097 3.94331 4.70419 3.62762 4.41025C3.30751 4.1122 2.84416 3.93102 2.29021 3.93102C1.26336 3.93102 0.5 4.81001 0.5 5.72294C0.5 6.30381 0.517954 8.88097 0.535944 11.3165C0.544933 12.5335 0.553922 13.7141 0.560663 14.5904L0.56881 15.6431L0.571092 15.9356L0.571693 16.0124L0.571847 16.032L0.571886 16.037L0.571896 16.0383L0.571899 16.0386C0.571899 16.0386 0.5719 16.0387 0.0719149 16.0426M18.4065 11.1789L0.0719149 16.0426" stroke="#13020F"/>
<path d="M3.76657 10.5144C3.76836 10.8502 3.78016 11.1866 3.81014 11.5122C3.68535 11.1966 3.61954 10.859 3.62012 10.5139L3.76657 10.5144ZM3.76657 10.5144H4.12012L3.76657 10.5137M10.8896 13.3627C11.5276 13.3448 12.0403 13.1622 12.4318 12.8453C12.4263 12.8565 12.4207 12.8676 12.4151 12.8786L12.1715 13.3565L12.1298 13.3501L11.9515 13.5207C11.6036 13.8536 11.1092 14.0801 10.361 14.0801C9.33472 14.0801 8.79813 13.7279 8.55682 13.3739L8.40488 13.151L8.13516 13.1555L7.98396 13.1581L7.75047 13.1621C7.91683 13.0994 8.07614 13.0231 8.22678 12.9344L8.62896 12.6976C8.9747 13.0126 9.44569 13.2268 10.0623 13.3165L10.0877 13.3202L10.1133 13.3213C10.355 13.3314 10.5984 13.3449 10.8409 13.3617L10.8652 13.3634L10.8896 13.3627Z" stroke="#13020F"/>
</svg>
