<svg width="24" height="24" viewBox="0 0 24 24" fill="none" xmlns="http://www.w3.org/2000/svg">
<mask id="mask0_3383_36084" style="mask-type:alpha" maskUnits="userSpaceOnUse" x="0" y="0" width="24" height="24">
<rect width="24" height="24" fill="#D9D9D9"/>
</mask>
<g mask="url(#mask0_3383_36084)">
</g>
<g clip-path="url(#clip0_3383_36084)">
<path d="M21.21 8.1C20.68 6.88 19.97 5.83 19.07 4.93C18.17 4.03 17.11 3.32 15.9 2.79C14.68 2.27 13.38 2 12 2C10.62 2 9.31999 2.26 8.09999 2.79C6.87999 3.32 5.81999 4.03 4.91999 4.93C4.01999 5.83 3.30999 6.89 2.77999 8.1C2.24999 9.32 1.98999 10.62 1.98999 12C1.98999 13.38 2.24999 14.68 2.77999 15.9C3.29999 17.12 4.01999 18.18 4.91999 19.08C5.81999 19.98 6.87999 20.69 8.09999 21.22C9.31999 21.75 10.62 22.01 12 22.01C13.38 22.01 14.68 21.75 15.9 21.22C17.12 20.7 18.17 19.98 19.07 19.08C19.97 18.18 20.68 17.12 21.21 15.9C21.73 14.68 22 13.38 22 12C22 10.62 21.74 9.32 21.21 8.1Z" fill="#6D73CE"/>
<path d="M16.95 10.2501L11.3 15.9001C11.1 16.1001 10.87 16.2001 10.6 16.2001C10.33 16.2001 10.1 16.1001 9.90003 15.9001L7.05003 13.0501C6.87003 12.8701 6.78003 12.6301 6.78003 12.3501C6.78003 12.0701 6.87003 11.8301 7.05003 11.6501C7.23003 11.4701 7.47003 11.3801 7.75003 11.3801C8.03003 11.3801 8.27003 11.4701 8.45003 11.6501L10.6 13.8001L15.55 8.85008C15.73 8.67008 15.97 8.58008 16.25 8.58008C16.53 8.58008 16.77 8.67008 16.95 8.85008C17.13 9.03008 17.23 9.27008 17.23 9.55008C17.23 9.83008 17.14 10.0701 16.95 10.2501Z" fill="#FFFEFF"/>
</g>
<defs>
<clipPath id="clip0_3383_36084">
<rect width="20" height="20" fill="white" transform="translate(2 2)"/>
</clipPath>
</defs>
</svg>
