<svg width="17" height="21" viewBox="0 0 17 21" fill="none" xmlns="http://www.w3.org/2000/svg">
<path id="notifications" d="M0.25 17.3359V15.3359H2.25V8.33594C2.25 6.9526 2.66667 5.72327 3.5 4.64794C4.33333 3.57327 5.41667 2.86927 6.75 2.53594V1.83594C6.75 1.41927 6.896 1.06527 7.188 0.773937C7.47933 0.481937 7.83333 0.335938 8.25 0.335938C8.66667 0.335938 9.02067 0.481937 9.312 0.773937C9.604 1.06527 9.75 1.41927 9.75 1.83594V2.53594C11.0833 2.86927 12.1667 3.57327 13 4.64794C13.8333 5.72327 14.25 6.9526 14.25 8.33594V15.3359H16.25V17.3359H0.25ZM8.25 20.3359C7.7 20.3359 7.22933 20.1403 6.838 19.7489C6.446 19.3569 6.25 18.8859 6.25 18.3359H10.25C10.25 18.8859 10.0543 19.3569 9.663 19.7489C9.271 20.1403 8.8 20.3359 8.25 20.3359ZM4.25 15.3359H12.25V8.33594C12.25 7.23594 11.8583 6.29427 11.075 5.51094C10.2917 4.7276 9.35 4.33594 8.25 4.33594C7.15 4.33594 6.20833 4.7276 5.425 5.51094C4.64167 6.29427 4.25 7.23594 4.25 8.33594V15.3359Z" fill="#FFFEFF"/>
</svg>
