<svg width="68" height="42" viewBox="0 0 68 42" fill="none" xmlns="http://www.w3.org/2000/svg">
<g id="Logo_Colour_White">
<path id="Vector" d="M0.198213 31.9812L0.00883906 30.5279C-0.0389924 30.2117 0.166976 29.9589 0.483249 29.9589C0.799523 29.9589 1.06796 30.2429 1.21048 30.5123L1.54238 31.0969C1.76396 31.46 2.41115 32.6293 3.95933 32.6293C5.16 32.6293 5.76033 31.9656 5.76033 31.0813C5.76033 29.9598 4.76466 29.5802 3.359 28.8384C1.41548 27.8116 0.341707 26.8795 0.341707 25.3783C0.341707 23.7991 1.73175 22.5352 3.89686 22.5352C5.87161 22.5352 7.0879 23.4194 7.19918 24.1934L7.37294 25.5677C7.42077 25.8683 7.23042 26.1045 6.93074 26.1045C6.63106 26.1045 6.37824 25.8361 6.23572 25.5833L5.93506 25.0299C5.651 24.5878 5.2869 23.6869 4.03937 23.6869C3.21745 23.6869 2.53805 24.3028 2.53805 25.109C2.53805 25.9932 3.10715 26.2939 4.95501 27.2416C6.5188 28.0156 7.92544 28.9477 7.92544 30.6694C7.92544 32.518 6.44071 33.7498 4.07061 33.7498C1.84303 33.7498 0.31047 32.8177 0.200165 31.9802L0.198213 31.9812Z" fill="#FFFEFF"/>
<path id="Vector_2" d="M16.7926 33.0438C16.7926 33.4225 16.161 33.7543 15.1175 33.7543C14.1853 33.7543 13.8065 33.3913 13.8065 32.8222V32.301C13.6328 32.6173 12.969 33.7543 11.3261 33.7543C9.90387 33.7543 8.89258 33.075 8.89258 31.6217C8.89258 29.6472 11.3261 28.557 13.7899 28.7151V28.557C13.7899 27.3877 13.379 26.519 12.4624 26.519C10.9454 26.519 11.2617 28.2563 10.1079 28.2563C9.71255 28.2563 9.36504 27.9401 9.36504 27.4823C9.36504 26.6137 10.5023 25.5391 12.7298 25.5391C14.6577 25.5391 15.9999 26.5024 15.9999 28.351V31.7788C15.9999 32.3 16.0634 32.6787 16.3953 32.6787C16.6169 32.6787 16.7906 32.8369 16.7906 33.0418L16.7926 33.0438ZM13.8065 30.6115V29.6003C12.3218 29.4744 11.1211 30.0425 11.1211 31.2274C11.1211 31.7808 11.453 32.3332 12.2115 32.3332C13.049 32.3332 13.8075 31.4802 13.8075 30.6115H13.8065Z" fill="#FFFEFF"/>
<path id="Vector_3" d="M17.0332 26.3037C17.0332 26.1456 17.1279 26.0666 17.286 26.0197L18.6136 25.6879V25.072C18.6136 22.9394 19.8455 20.9492 22.4684 20.9492C23.4797 20.9492 24.1435 21.5339 24.1435 22.2132C24.1435 22.6875 23.7804 23.0506 23.2747 23.0506C22.5953 23.0506 22.4059 22.2454 21.8212 22.2454C21.2365 22.2454 20.8256 22.9247 20.8256 23.9671V25.6888H22.5163C22.6744 25.6888 22.7691 25.8147 22.7691 25.9729V26.4628C22.7691 26.6209 22.6744 26.7156 22.5163 26.7156H20.8256V32.1658C20.8256 32.6714 21.3468 32.9242 21.3468 33.2404C21.3468 33.4454 21.1731 33.5879 20.9359 33.5879H18.5033C18.2661 33.5879 18.0923 33.4454 18.0923 33.2404C18.0923 32.9242 18.6136 32.6714 18.6136 32.1658V26.7156H17.286C17.1279 26.7156 17.0332 26.6209 17.0332 26.4628V26.3047V26.3037Z" fill="#FFFEFF"/>
<path id="Vector_4" d="M29.38 29.9068H25.0352C25.0986 31.2811 25.9039 32.3391 27.4053 32.3391C28.8275 32.3391 29.4903 31.5338 29.8066 31.5338C29.9169 31.5338 29.996 31.6285 29.996 31.7554C29.996 32.466 28.7319 33.7143 26.8674 33.7299C24.3392 33.7455 22.7441 32.1185 22.7441 29.7331C22.7441 27.3476 24.4348 25.5156 26.7571 25.5156C28.8265 25.5156 30.2644 26.9533 30.28 28.9913C30.28 29.6394 30.0272 29.9078 29.3791 29.9078L29.38 29.9068ZM28.2897 28.9591C28.2897 27.6317 27.7684 26.763 26.7727 26.763C25.777 26.763 25.082 27.6795 25.0186 28.9591H28.2887H28.2897Z" fill="#FFFEFF"/>
<path id="Vector_5" d="M34.9505 22.5352C37.6838 22.5352 39.2954 23.6722 39.2954 25.5843C39.2954 27.4963 37.7941 28.7125 35.2668 28.7125H33.9558V32.1725C33.9558 32.6781 34.4771 32.9309 34.4771 33.2471C34.4771 33.4521 34.3033 33.5946 34.0661 33.5946H31.5223C31.2851 33.5946 31.1113 33.4521 31.1113 33.2471C31.1113 32.9309 31.6326 32.6781 31.6326 32.1725V23.9582C31.6326 23.4682 31.3007 23.153 31.3007 22.8836C31.3007 22.7255 31.411 22.5517 31.6326 22.5361H34.9505V22.5352ZM34.9193 27.7794C36.404 27.7794 37.2894 26.9742 37.2894 25.5833C37.2894 24.2881 36.3259 23.4985 34.7143 23.4985H33.9558V27.7794H34.9193Z" fill="#FFFEFF"/>
<path id="Vector_6" d="M39.5254 21.9831C39.5254 21.6356 40.157 21.3516 41.2005 21.3516C42.1015 21.3516 42.4958 21.6678 42.4958 22.2358V32.1719C42.4958 32.6775 43.0171 32.9302 43.0171 33.2465C43.0171 33.4514 42.8433 33.5939 42.6061 33.5939H40.1736C39.9364 33.5939 39.7626 33.4514 39.7626 33.2465C39.7626 32.9302 40.2839 32.6775 40.2839 32.1719V22.6936C40.2839 22.4886 40.1257 22.3149 39.9364 22.3149C39.6991 22.3149 39.5254 22.1724 39.5254 21.9831Z" fill="#FFFEFF"/>
<path id="Vector_7" d="M52.0426 33.0438C52.0426 33.4225 51.411 33.7543 50.3675 33.7543C49.4353 33.7543 49.0565 33.3913 49.0565 32.8222V32.301C48.8828 32.6173 48.219 33.7543 46.5761 33.7543C45.1539 33.7543 44.1426 33.075 44.1426 31.6217C44.1426 29.6472 46.5761 28.557 49.0399 28.7151V28.557C49.0399 27.3877 48.629 26.519 47.7124 26.519C46.1954 26.519 46.5117 28.2563 45.3579 28.2563C44.9625 28.2563 44.615 27.9401 44.615 27.4823C44.615 26.6137 45.7523 25.5391 47.9798 25.5391C49.9077 25.5391 51.2499 26.5024 51.2499 28.351V31.7788C51.2499 32.3 51.3134 32.6787 51.6453 32.6787C51.8669 32.6787 52.0406 32.8369 52.0406 33.0418L52.0426 33.0438ZM49.0565 30.6115V29.6003C47.5718 29.4744 46.3711 30.0425 46.3711 31.2274C46.3711 31.7808 46.703 32.3332 47.4615 32.3332C48.299 32.3332 49.0575 31.4802 49.0575 30.6115H49.0565Z" fill="#FFFEFF"/>
<path id="Vector_8" d="M54.5274 29.5828C54.5274 31.1786 55.3327 32.3791 56.9443 32.3791C58.556 32.3791 59.251 31.3523 59.6141 31.3523C59.7244 31.3523 59.8035 31.447 59.8035 31.5573C59.8035 32.2366 58.6341 33.6587 56.5802 33.6899C53.8782 33.7378 52.2988 32.0785 52.2988 29.7565C52.2988 27.4345 53.9261 25.5859 56.4855 25.5859C58.9025 25.5859 59.8669 27.292 59.8669 28.066C59.8669 28.5872 59.5507 28.9669 59.045 28.9669C57.6862 28.9669 58.4759 26.7084 56.754 26.7084C55.4264 26.7084 54.5264 28.0514 54.5264 29.5838L54.5274 29.5828Z" fill="#FFFEFF"/>
<path id="Vector_9" d="M67.0988 29.9068H62.7539C62.8174 31.2811 63.6227 32.3391 65.124 32.3391C66.5463 32.3391 67.2091 31.5338 67.5254 31.5338C67.6357 31.5338 67.7147 31.6285 67.7147 31.7554C67.7147 32.466 66.4506 33.7143 64.5862 33.7299C62.0579 33.7455 60.4629 32.1185 60.4629 29.7331C60.4629 27.3476 62.1536 25.5156 64.4759 25.5156C66.5453 25.5156 67.9832 26.9533 67.9988 28.9913C67.9988 29.6394 67.746 29.9078 67.0978 29.9078L67.0988 29.9068ZM66.0084 28.9591C66.0084 27.6317 65.4872 26.763 64.4915 26.763C63.4958 26.763 62.8008 27.6795 62.7373 28.9591H66.0074H66.0084Z" fill="#FFFEFF"/>
<path id="Vector_10" d="M11.4004 41.2401V37.3555H12.111V41.2401H11.4004Z" fill="#FFFEFF"/>
<path id="Vector_11" d="M13.0879 41.2401V37.3555H13.7985L15.6249 40.0913V37.3555H16.3355V41.2401H15.6249L13.7985 38.5091V41.2401H13.0879Z" fill="#FFFEFF"/>
<path id="Vector_12" d="M18.2124 41.2411V37.9274H17.0801V37.3555H20.0612V37.9274H18.9231V41.2411H18.2124Z" fill="#FFFEFF"/>
<path id="Vector_13" d="M20.8066 41.2401V37.3555H23.3437V37.9274H21.5173V38.9933H23.1767V39.5486H21.5173V40.6701H23.3437V41.242H20.8066V41.2401Z" fill="#FFFEFF"/>
<path id="Vector_14" d="M24.2441 41.2401V37.3555H25.6703C25.9807 37.3555 26.2374 37.4082 26.4395 37.5136C26.6416 37.619 26.7919 37.7615 26.8915 37.9411C26.991 38.1207 27.0418 38.3198 27.0418 38.5374C27.0418 38.7746 26.9803 38.9903 26.8563 39.1865C26.7324 39.3827 26.5391 39.5252 26.2765 39.614L27.0818 41.2401H26.2658L25.5444 39.7087H24.9558V41.2401H24.2451H24.2441ZM24.9548 39.1865H25.6264C25.8626 39.1865 26.0373 39.1289 26.1476 39.0147C26.2589 38.9005 26.3146 38.7483 26.3146 38.5599C26.3146 38.3715 26.2599 38.2271 26.1506 38.1158C26.0412 38.0045 25.8646 37.9489 25.6205 37.9489H24.9548V39.1865Z" fill="#FFFEFF"/>
<path id="Vector_15" d="M27.9238 41.2401V37.3555H28.6345L30.4608 40.0913V37.3555H31.1715V41.2401H30.4608L28.6345 38.5091V41.2401H27.9238Z" fill="#FFFEFF"/>
<path id="Vector_16" d="M31.8848 41.2401L33.306 37.3555H34.1055L35.5268 41.2401H34.7722L34.4618 40.3412H32.9468L32.6305 41.2401H31.8867H31.8848ZM33.1391 39.7858H34.2656L33.6994 38.1705L33.1391 39.7858Z" fill="#FFFEFF"/>
<path id="Vector_17" d="M36.7593 41.2411V37.9274H35.627V37.3555H38.6081V37.9274H37.4699V41.2411H36.7593Z" fill="#FFFEFF"/>
<path id="Vector_18" d="M39.3457 41.2401V37.3555H40.0563V41.2401H39.3457Z" fill="#FFFEFF"/>
<path id="Vector_19" d="M42.8556 41.3045C42.4671 41.3045 42.1274 41.2195 41.8375 41.0487C41.5466 40.8789 41.3192 40.6427 41.1552 40.3411C40.9902 40.0395 40.9082 39.6911 40.9082 39.2948C40.9082 38.8985 40.9902 38.5501 41.1552 38.2485C41.3201 37.9469 41.5476 37.7107 41.8375 37.5409C42.1284 37.371 42.4671 37.2852 42.8556 37.2852C43.2441 37.2852 43.579 37.3701 43.8718 37.5409C44.1637 37.7107 44.3921 37.9469 44.5541 38.2485C44.7172 38.5501 44.7982 38.8985 44.7982 39.2948C44.7982 39.6911 44.7172 40.0395 44.5541 40.3411C44.3911 40.6427 44.1637 40.8789 43.8718 41.0487C43.579 41.2186 43.2412 41.3045 42.8556 41.3045ZM42.8556 40.6661C43.2256 40.6661 43.5204 40.5441 43.741 40.3001C43.9606 40.0561 44.0709 39.7213 44.0709 39.2958C44.0709 38.8702 43.9606 38.5355 43.741 38.2914C43.5204 38.0474 43.2256 37.9254 42.8556 37.9254C42.4857 37.9254 42.1899 38.0474 41.9673 38.2914C41.7448 38.5355 41.6345 38.8702 41.6345 39.2958C41.6345 39.7213 41.7457 40.0561 41.9673 40.3001C42.1889 40.5441 42.4857 40.6661 42.8556 40.6661Z" fill="#FFFEFF"/>
<path id="Vector_20" d="M45.6426 41.2401V37.3555H46.3532L48.1796 40.0913V37.3555H48.8902V41.2401H48.1796L46.3532 38.5091V41.2401H45.6426Z" fill="#FFFEFF"/>
<path id="Vector_21" d="M49.6191 41.2401L51.0404 37.3555H51.8399L53.2612 41.2401H52.5066L52.1962 40.3412H50.6812L50.3649 41.2401H49.6211H49.6191ZM50.8735 39.7858H52L51.4338 38.1705L50.8735 39.7858Z" fill="#FFFEFF"/>
<path id="Vector_22" d="M53.9941 41.2401V37.3555H54.7048V40.6857H56.4257V41.2411H53.9941V41.2401Z" fill="#FFFEFF"/>
<path id="Vector_23" d="M12.1439 18.588C12.2044 18.1547 12.2845 17.6881 12.3899 17.2031C13.17 13.621 14.7418 11.7431 15.9221 10.7983C17.8737 9.23667 20.0948 8.59346 22.5238 8.88627C26.8205 9.40454 31.6639 12.7436 36.64 18.588H39.5757C33.8078 11.3937 28.0233 7.26801 22.7943 6.63749C19.7385 6.26953 16.9502 7.07378 14.5055 9.02975C11.2623 11.625 10.1972 15.821 9.85352 18.588H12.1429H12.1439Z" fill="url(#paint0_linear_2096_14587)"/>
<path id="Vector_24" d="M19.306 18.5841C19.9631 9.8427 26.3402 2.95971 34.0861 2.95971C41.832 2.95971 48.2101 9.8427 48.8661 18.5841H51.138C50.8324 13.9957 49.1171 9.7246 46.2302 6.42658C42.9967 2.73034 38.6834 0.695312 34.0861 0.695312C29.4887 0.695312 25.1755 2.73034 21.941 6.42658C19.0541 9.7246 17.3388 13.9967 17.0332 18.5841H19.305H19.306Z" fill="url(#paint1_linear_2096_14587)"/>
<path id="Vector_25" d="M25.6234 18.5854C26.544 17.2902 27.9031 15.5411 29.6127 13.8067C32.6032 10.7722 37.3169 7.156 42.7873 7.156C47.5566 7.156 51.2062 9.2086 53.6362 13.2562C54.8674 15.3078 55.4737 17.3907 55.7451 18.5844H58.062C57.8208 17.3585 57.1696 14.77 55.6192 12.1611C53.6489 8.84454 49.8227 4.89062 42.7853 4.89062C39.994 4.89062 37.1675 5.67731 34.385 7.23018C32.2009 8.44827 30.0393 10.1388 27.9588 12.2558C25.4779 14.7798 23.7244 17.2804 22.877 18.5854H25.6204H25.6234Z" fill="url(#paint2_linear_2096_14587)"/>
</g>
<defs>
<linearGradient id="paint0_linear_2096_14587" x1="9.85449" y1="12.5698" x2="39.5767" y2="12.5698" gradientUnits="userSpaceOnUse">
<stop stop-color="#2EC9E8"/>
<stop offset="1" stop-color="#A65AE8"/>
</linearGradient>
<linearGradient id="paint1_linear_2096_14587" x1="17.0342" y1="9.63968" x2="51.139" y2="9.63968" gradientUnits="userSpaceOnUse">
<stop stop-color="#009959"/>
<stop offset="0.55" stop-color="#8CC63F"/>
<stop offset="1" stop-color="#FCCD21"/>
</linearGradient>
<linearGradient id="paint2_linear_2096_14587" x1="22.8799" y1="11.7385" x2="58.0639" y2="11.7385" gradientUnits="userSpaceOnUse">
<stop stop-color="#F19D43"/>
<stop offset="1" stop-color="#ED55B5"/>
</linearGradient>
</defs>
</svg>
