<svg width="86" height="86" viewBox="0 0 86 86" fill="none" xmlns="http://www.w3.org/2000/svg">
<g id="Modals/(child) group icons (mobile)">
<circle id="group 3 photo" cx="43" cy="43" r="43" fill="#9DA1DE"/>
<rect id="Rectangle 12344" width="86" height="86" rx="8" fill="#44BCE4"/>
<path id="Vector" d="M69.8909 37.3159C69.0146 36.1823 67.798 35.3862 66.4351 35.0548C64.9206 34.6383 63.3116 34.8125 61.9123 35.5446C60.9456 36.0652 60.0073 36.641 59.1019 37.2694V22.6377C59.1357 21.75 58.9968 20.8644 58.6937 20.0338C58.3905 19.2032 57.9292 18.4445 57.3374 17.8032C56.7456 17.1618 56.0354 16.651 55.2492 16.3011C54.463 15.9512 53.617 15.7695 52.7617 15.7668C51.0477 15.8192 49.422 16.5687 48.2349 17.8538C47.0477 19.1389 46.394 20.8569 46.4146 22.6377V25.5851C45.882 25.4506 45.3364 25.3798 44.7883 25.3742C44.3718 25.3742 43.957 25.4099 43.5474 25.4832L43.4115 25.5047C43.0466 25.5762 42.6886 25.6834 42.3444 25.821C42.2773 25.8478 42.2154 25.88 42.15 25.9104C41.8567 26.0395 41.576 26.1975 41.3118 26.3823C41.243 26.4288 41.1793 26.4842 41.1139 26.5342C40.8609 26.7273 40.6269 26.9453 40.4152 27.1866C40.3928 27.2116 40.3653 27.2277 40.3429 27.2545C40.2895 27.3171 40.2568 27.3904 40.2069 27.4547C39.8979 27.8618 39.64 28.3081 39.4394 28.7828C38.2374 28.2558 36.9047 28.1418 35.6359 28.4575C35.4914 28.4914 35.3571 28.5486 35.2177 28.5933L34.9923 28.6648C34.8761 27.1883 34.2717 25.799 33.2816 24.7325C32.7081 24.146 32.0283 23.6834 31.2815 23.3717C30.5346 23.06 29.7357 22.9052 28.9309 22.9165C27.3027 22.9762 25.7621 23.6974 24.6407 24.9249C23.5194 26.1524 22.9068 27.788 22.9349 29.4799C22.9349 30.7025 22.9676 36.0933 23.002 41.1552L23.0485 47.9796C23.0485 48.8912 23.0588 49.6472 23.064 50.1727V50.9967C22.988 53.5568 23.4499 56.1033 24.4177 58.4591C25.3854 60.815 26.8356 62.9236 28.6676 64.6383C32.256 67.778 36.822 69.4541 41.5132 69.3535C44.0291 69.3159 46.5124 68.757 48.8176 67.7094C51.1227 66.6619 53.2032 65.1468 54.9371 63.253C56.8871 60.9926 58.5691 58.4974 59.9469 55.821C60.5217 54.6949 61.1843 53.6171 61.9278 52.6036C63.7755 50.5364 65.8477 48.6986 68.1028 47.127C68.3541 46.9482 68.5967 46.7588 68.8222 46.5908C69.4649 46.0746 70 45.4282 70.395 44.6908C70.7899 43.9534 71.0365 43.1404 71.1197 42.301C71.3433 40.5369 70.9032 38.7513 69.8909 37.3159ZM42.1345 33.0529C42.1327 32.6418 42.1517 32.2325 42.193 31.825C42.193 31.7338 42.2188 31.6605 42.2291 31.5747C42.2584 31.3567 42.2928 31.1511 42.3341 30.967C42.3911 30.7168 42.4688 30.4722 42.5664 30.2359C42.594 30.1716 42.6215 30.1001 42.6508 30.0429C42.7317 29.8785 42.8332 29.7265 42.952 29.5889L42.9795 29.5621C43.0683 29.4684 43.1677 29.3862 43.2755 29.3172C43.3805 29.2451 43.4931 29.1857 43.6111 29.1403C43.7557 29.0831 43.9054 29.0402 44.0586 29.0116H44.0964C44.324 28.9736 44.5543 28.9551 44.7848 28.9562C45.1225 28.9293 45.4617 28.9829 45.7764 29.1131C46.0911 29.2432 46.373 29.4463 46.6005 29.7069C47.2528 30.6864 47.547 31.875 47.4335 33.0601V38.467C47.4335 42.578 45.4405 42.578 44.7848 42.578C43.3306 42.578 42.6766 42.3028 42.3754 41.3608C42.3548 41.2965 42.3324 41.2339 42.3169 41.1642C42.2747 40.9876 42.2431 40.8086 42.2222 40.628C42.2222 40.5779 42.2085 40.5314 42.2033 40.4778C42.176 40.2045 42.1582 39.9303 42.15 39.6556V39.5948C42.1396 39.2552 42.1362 38.8799 42.1362 38.467L42.1345 33.0529ZM38.7165 32.4023C38.7165 32.6186 38.6924 32.8241 38.6924 33.0529V39.089C38.6765 40.0144 38.7555 40.939 38.9282 41.847C38.5143 42.2099 38.0115 42.4464 37.4757 42.53C36.94 42.6137 36.3925 42.5412 35.8941 42.3206C35.3504 42.0837 34.8864 41.6847 34.5608 41.1741C34.2352 40.6636 34.0626 40.0642 34.0647 39.4518V34.9637C34.0648 34.5261 34.1543 34.0935 34.3272 33.6945C34.5002 33.2955 34.7527 32.9391 35.068 32.649C35.2215 32.5006 35.3927 32.3732 35.5774 32.27C35.6497 32.2271 35.7203 32.1824 35.796 32.1449C35.9215 32.0869 36.0509 32.0385 36.1832 32.0001C36.2521 31.9733 36.3209 31.9519 36.3915 31.9322C36.7884 31.8357 37.2006 31.8277 37.6008 31.9087C38.001 31.9897 38.3801 32.158 38.7131 32.4023H38.7165ZM66.1047 44.2278V44.2224C63.6324 45.9532 61.3626 47.9771 59.3411 50.2532C58.4462 51.4364 57.6545 52.7001 56.973 54.0282C55.7312 56.4563 54.2152 58.722 52.4571 60.7775C51.0447 62.3246 49.3496 63.564 47.4709 64.4233C45.5922 65.2826 43.5674 65.7446 41.5149 65.7822C37.6615 65.8818 33.9047 64.523 30.9445 61.9589C29.4771 60.577 28.3196 58.8775 27.5536 56.9803C26.7876 55.0831 26.4317 53.0345 26.5111 50.9789V50.1584C26.5111 49.6312 26.5008 48.8769 26.4957 47.9635L26.4492 41.1409C26.4148 36.0647 26.3821 30.6971 26.3821 29.4906C26.3525 28.7458 26.6012 28.0179 27.0761 27.459C27.5511 26.9001 28.2156 26.5534 28.9309 26.4913C29.2825 26.478 29.6331 26.5378 29.962 26.6674C30.291 26.7969 30.5917 26.9935 30.8464 27.2456C31.1133 27.545 31.3194 27.8971 31.4524 28.2809C31.5855 28.6648 31.6428 29.0725 31.6208 29.4799V31.4174C30.9733 32.4782 30.6284 33.7077 30.6261 34.9637V39.4679C30.6291 40.4482 30.8407 41.4157 31.246 42.301C31.6512 43.1863 32.24 43.9676 32.9701 44.5889C32.9598 44.6432 32.9529 44.6981 32.9494 44.7533C32.9821 45.2258 33.194 45.6656 33.5386 45.976C33.8833 46.2863 34.3325 46.4419 34.7875 46.4084C37.6018 46.1776 40.4262 46.1077 43.248 46.1993C44.358 46.2476 45.4302 46.3387 46.4404 46.471C46.3286 46.5228 46.2253 46.5657 46.1117 46.6212C42.0639 48.4881 38.546 51.4043 35.8958 55.0899C35.7639 55.2806 35.6695 55.4964 35.618 55.7251C35.5664 55.9537 35.5587 56.1906 35.5953 56.4223C35.6692 56.8902 35.9191 57.3085 36.2899 57.5851C36.6608 57.8617 37.1222 57.974 37.5728 57.8973C38.0234 57.8205 38.4261 57.561 38.6924 57.1758C40.9939 53.9924 44.0432 51.4753 47.5488 49.8653C48.7228 49.3002 49.934 48.8223 51.1732 48.4354C51.6276 48.2942 51.989 48.1977 52.2316 48.1369L52.5001 48.0725L52.5621 48.0582H52.5724C52.9196 47.9882 53.2377 47.8087 53.4832 47.5442C53.7287 47.2798 53.8898 46.9431 53.9445 46.5802C53.9993 46.2172 53.945 45.8456 53.7891 45.5158C53.6332 45.186 53.3832 44.9142 53.0732 44.7372C51.9928 44.1496 50.8424 43.7126 49.6518 43.4378C50.5035 41.9344 50.9256 40.2103 50.8686 38.467V33.0529C50.9328 31.4083 50.5803 29.775 49.8463 28.3163V22.6377C49.8292 21.8038 50.1229 20.9953 50.6662 20.3811C51.2095 19.7669 51.9603 19.3945 52.7617 19.3417C53.1658 19.3434 53.5652 19.432 53.9347 19.602C54.3042 19.7719 54.6357 20.0195 54.9085 20.3292C55.1813 20.6388 55.3893 21.0038 55.5195 21.4011C55.6497 21.7985 55.6993 22.2195 55.6651 22.6377V39.6181C55.6341 40.3027 55.8475 40.9729 56.264 41.5038C56.5215 41.8007 56.8546 42.016 57.2249 42.1248C57.5952 42.2336 57.9875 42.2315 58.3567 42.1187C58.6889 42.0168 58.9986 41.8541 59.274 41.6378C59.3669 41.5681 59.4461 41.502 59.4977 41.4591L59.5666 41.393L59.5855 41.3769C60.7868 40.3363 62.1022 39.4466 63.5042 38.7262C64.1556 38.3965 64.9007 38.3259 65.5987 38.5278C66.1994 38.6618 66.7415 38.9907 67.1476 39.4679C67.6261 40.1614 67.8291 41.0194 67.7173 41.8648C67.6918 42.2191 67.5988 42.5646 67.4437 42.8813C67.2886 43.1979 67.0745 43.4794 66.8138 43.7095L66.1047 44.2278Z" fill="#13020F"/>
</g>
</svg>
